<svg width="36" height="36" viewBox="0 0 36 36" fill="none" xmlns="http://www.w3.org/2000/svg">
<rect width="36" height="36" rx="9.28889" fill="#338CFF" fill-opacity="0.16"/>
<path d="M21.1295 19.755L20.7499 20.1324C20.7499 20.1324 19.8478 21.0294 17.3853 18.5809C14.9228 16.1323 15.8249 15.2353 15.8249 15.2353L16.0639 14.9977C16.6527 14.4122 16.7082 13.4723 16.1946 12.7861L15.1437 11.3824C14.5079 10.5331 13.2793 10.4209 12.5506 11.1455L11.2426 12.4461C10.8812 12.8054 10.6391 13.2712 10.6684 13.7878C10.7435 15.1097 11.3416 17.9537 14.6788 21.272C18.2178 24.7909 21.5384 24.9307 22.8962 24.8041C23.3257 24.7641 23.6993 24.5453 24.0003 24.246L25.1841 23.069C25.9831 22.2744 25.7579 20.9123 24.7355 20.3565L23.1434 19.491C22.4721 19.1261 21.6542 19.2333 21.1295 19.755Z" fill="#338CFF"/>
</svg>
