<svg width="54" height="54" viewBox="0 0 54 54" fill="none" xmlns="http://www.w3.org/2000/svg">
<rect width="54" height="54" rx="13.9333" fill="white" fill-opacity="0.16"/>
<path d="M31.6952 30.1327L31.1259 30.6988C31.1259 30.6988 29.7727 32.0443 26.0789 28.3715C22.3851 24.6988 23.7384 23.3532 23.7384 23.3532L24.0969 22.9967C24.9801 22.1186 25.0634 20.7086 24.2928 19.6794L22.7166 17.5739C21.7629 16.2999 19.9199 16.1316 18.8268 17.2185L16.8648 19.1694C16.3228 19.7083 15.9596 20.407 16.0036 21.182C16.1163 23.1648 17.0134 27.4308 22.0192 32.4082C27.3277 37.6865 32.3085 37.8963 34.3453 37.7064C34.9896 37.6464 35.5499 37.3182 36.0014 36.8693L37.7771 35.1037C38.9757 33.9119 38.6378 31.8687 37.1042 31.035L34.716 29.7368C33.7091 29.1894 32.4822 29.3502 31.6952 30.1327Z" fill="white"/>
</svg>
