<svg width="58" height="54" viewBox="0 0 58 54" fill="none" xmlns="http://www.w3.org/2000/svg">
<rect width="58" height="54" rx="13.9333" fill="white" fill-opacity="0.16"/>
<g clip-path="url(#clip0_9029_18485)">
<path d="M37.9311 37.5432L27.1645 29.9432C26.9454 29.7885 26.6527 29.7885 26.4336 29.9432L15.667 37.5432C15.4985 37.6619 15.3983 37.8552 15.3984 38.0612V38.6946C15.3984 39.0444 15.682 39.3279 16.0317 39.3279H37.5651C37.9149 39.3279 38.1984 39.0444 38.1984 38.6946V38.0612C38.1988 37.8554 38.0991 37.6622 37.9311 37.5432Z" fill="#CFD8DC"/>
<path d="M27.1645 29.9441L16.3978 22.3441C16.1124 22.1419 15.7171 22.2094 15.5149 22.4948C15.4389 22.6022 15.3981 22.7306 15.3984 22.8621V38.0621C15.3977 38.4119 15.6808 38.696 16.0305 38.6967C16.1621 38.697 16.2905 38.6562 16.3978 38.5802L27.1645 30.9802C27.4503 30.7786 27.5184 30.3834 27.3167 30.0976C27.275 30.0386 27.2236 29.9871 27.1645 29.9454V29.9441Z" fill="#FAFAFA"/>
<path d="M37.8582 22.3007C37.6477 22.1931 37.395 22.2101 37.2008 22.345L26.4342 29.945C26.1484 30.1467 26.0803 30.5419 26.282 30.8276C26.3236 30.8867 26.3751 30.9382 26.4342 30.9799L37.2008 38.5799C37.4863 38.7821 37.8816 38.7145 38.0838 38.4291C38.1596 38.3221 38.2002 38.1942 38.2002 38.0631V22.8631C38.2002 22.6264 38.0684 22.4095 37.8582 22.3007Z" fill="#EEEEEE"/>
<path d="M39.4345 16.965C39.3491 16.705 39.1065 16.5293 38.8329 16.5293H14.7662C14.4164 16.5293 14.1328 16.8129 14.1328 17.1627C14.1328 17.362 14.2267 17.5497 14.3862 17.6693L26.4195 26.5359C26.6429 26.7004 26.9473 26.7004 27.1707 26.5359L39.204 17.6693C39.4245 17.5087 39.5173 17.2249 39.4345 16.965Z" fill="#ECEFF1"/>
<path d="M38.833 16.5293C38.6959 16.5293 38.5626 16.5738 38.453 16.6559L26.7996 25.2427L15.1463 16.6559C15.0366 16.5738 14.9033 16.5293 14.7663 16.5293C13.0174 16.5293 11.5996 17.9471 11.5996 19.6959V36.1626C11.5996 37.9115 13.0174 39.3293 14.7663 39.3293H16.0329C16.3827 39.3293 16.6663 39.0457 16.6663 38.6959V24.0849L26.4335 30.9807C26.6525 31.1354 26.9453 31.1354 27.1644 30.9807L36.9329 24.0849V38.6959C36.9329 39.0457 37.2165 39.3293 37.5663 39.3293H38.8329C40.5819 39.3293 41.9996 37.9115 41.9996 36.1626V19.6959C41.9996 17.9471 40.5819 16.5293 38.833 16.5293Z" fill="#F44336"/>
</g>
<defs>
<clipPath id="clip0_9029_18485">
<rect width="30.4" height="30.4" fill="white" transform="translate(11.5996 12.7285)"/>
</clipPath>
</defs>
</svg>
